<mxfile host="65bd71144e" modified="2020-11-04T15:56:10.676Z" agent="5.0 (Windows NT 10.0; Win64; x64) AppleWebKit/537.36 (KHTML, like Gecko) Code/1.50.1 Chrome/83.0.4103.122 Electron/9.2.1 Safari/537.36" version="13.6.5" etag="_Id0PBoVFYd-griAtAOo">
    <diagram id="rdFl6wIJYbV6xbK-7Z77" name="Page-1">
        <mxGraphModel dx="1699" dy="430" grid="1" gridSize="10" guides="1" tooltips="1" connect="1" arrows="1" fold="1" page="1" pageScale="1" pageWidth="827" pageHeight="1169" math="0" shadow="0">
            <root>
                <mxCell id="0"/>
                <mxCell id="1" parent="0"/>
                <mxCell id="9" value="" style="rounded=1;whiteSpace=wrap;html=1;" vertex="1" parent="1">
                    <mxGeometry x="-483" y="40" width="190" height="160" as="geometry"/>
                </mxCell>
                <mxCell id="6" value="/perfil" style="edgeStyle=orthogonalEdgeStyle;rounded=0;orthogonalLoop=1;jettySize=auto;html=1;exitX=0;exitY=0.3333333333333333;exitDx=0;exitDy=0;exitPerimeter=0;entryX=1;entryY=0.5;entryDx=0;entryDy=0;" edge="1" parent="1" source="2" target="5">
                    <mxGeometry x="-0.4" relative="1" as="geometry">
                        <Array as="points">
                            <mxPoint x="140" y="200"/>
                            <mxPoint x="140" y="110"/>
                        </Array>
                        <mxPoint as="offset"/>
                    </mxGeometry>
                </mxCell>
                <mxCell id="2" value="Estudiante" style="shape=umlActor;verticalLabelPosition=bottom;verticalAlign=top;html=1;outlineConnect=0;" vertex="1" parent="1">
                    <mxGeometry x="170" y="180" width="30" height="60" as="geometry"/>
                </mxCell>
                <mxCell id="13" value="{ &quot;id_estudiante&quot;: 2323 }" style="edgeStyle=orthogonalEdgeStyle;rounded=0;orthogonalLoop=1;jettySize=auto;html=1;exitX=0;exitY=0.5;exitDx=0;exitDy=0;entryX=1;entryY=0.5;entryDx=0;entryDy=0;" edge="1" parent="1" source="5" target="12">
                    <mxGeometry relative="1" as="geometry">
                        <mxPoint x="-240" y="150" as="targetPoint"/>
                    </mxGeometry>
                </mxCell>
                <mxCell id="5" value="Frontend" style="rounded=1;whiteSpace=wrap;html=1;" vertex="1" parent="1">
                    <mxGeometry x="-60" y="80" width="120" height="60" as="geometry"/>
                </mxCell>
                <mxCell id="7" value="0" style="text;html=1;align=center;verticalAlign=middle;resizable=0;points=[];autosize=1;" vertex="1" parent="1">
                    <mxGeometry x="90" y="110" width="20" height="20" as="geometry"/>
                </mxCell>
                <mxCell id="10" value="Backend" style="text;html=1;align=center;verticalAlign=middle;resizable=0;points=[];autosize=1;" vertex="1" parent="1">
                    <mxGeometry x="-460" y="50" width="60" height="20" as="geometry"/>
                </mxCell>
                <mxCell id="15" value="{ &quot;nombre&quot; : &quot;Daniel, &quot;edad&quot; : 22, &quot;genero&quot; : M, &quot;carrera&quot; : &quot;Informatica, &quot;campus&quot; : &quot;Miraflores&quot; }" style="edgeStyle=orthogonalEdgeStyle;rounded=0;orthogonalLoop=1;jettySize=auto;html=1;exitX=0.5;exitY=1;exitDx=0;exitDy=0;entryX=0.5;entryY=1;entryDx=0;entryDy=0;" edge="1" parent="1" source="12" target="5">
                    <mxGeometry x="0.0179" y="-20" relative="1" as="geometry">
                        <Array as="points">
                            <mxPoint x="-388" y="170"/>
                            <mxPoint y="170"/>
                        </Array>
                        <mxPoint as="offset"/>
                    </mxGeometry>
                </mxCell>
                <mxCell id="12" value="/api/perfil" style="rounded=1;whiteSpace=wrap;html=1;" vertex="1" parent="1">
                    <mxGeometry x="-448" y="80" width="120" height="60" as="geometry"/>
                </mxCell>
                <mxCell id="14" value="#ID = 2323" style="text;html=1;align=center;verticalAlign=middle;resizable=0;points=[];autosize=1;" vertex="1" parent="1">
                    <mxGeometry x="150" y="270" width="70" height="20" as="geometry"/>
                </mxCell>
                <mxCell id="16" value="1" style="text;html=1;align=center;verticalAlign=middle;resizable=0;points=[];autosize=1;" vertex="1" parent="1">
                    <mxGeometry x="-110" y="90" width="20" height="20" as="geometry"/>
                </mxCell>
                <mxCell id="17" value="2" style="text;html=1;align=center;verticalAlign=middle;resizable=0;points=[];autosize=1;" vertex="1" parent="1">
                    <mxGeometry x="-360" y="150" width="20" height="20" as="geometry"/>
                </mxCell>
            </root>
        </mxGraphModel>
    </diagram>
</mxfile>